<svg height="512" viewBox="0 0 58 47" width="512" xmlns="http://www.w3.org/2000/svg"><g id="Page-1" fill="none" fill-rule="evenodd"><g id="001---AC-Unit" fill-rule="nonzero"><g fill="#ff5364"><path id="Shape" d="m8 47c-.55228475 0-1-.4477153-1-1 .00586456-1.0833769.46453569-2.1149337 1.265-2.845.46322155-.3550112.73483612-.9053844.73483612-1.489s-.27161457-1.1339888-.73483612-1.489c-.80552964-.7264335-1.26535466-1.7602956-1.26535466-2.845s.45982502-2.1185665 1.26535466-2.845c.45557212-.360384.72535967-.9061991.735-1.487 0-.5522847.44771525-1 1-1 .5522847 0 1 .4477153 1 1-.0058989 1.0830809-.4645879 2.1143155-1.265 2.844-.46318006.3546006-.73481959.904667-.73481959 1.488s.27163953 1.1333994.73481959 1.488c.8052908.7267787 1.2649231 1.7607417 1.2649231 2.8455s-.4596323 2.1187213-1.2649231 2.8455c-.45588266.3610084-.72567286.9075629-.735 1.489 0 .5522847-.44771525 1-1 1z"/><path id="Shape" d="m15 47c-.5522847 0-1-.4477153-1-1 .0058646-1.0833769.4645357-2.1149337 1.265-2.845.4632216-.3550112.7348361-.9053844.7348361-1.489s-.2716145-1.1339888-.7348361-1.489c-.8055296-.7264335-1.2653547-1.7602956-1.2653547-2.845s.4598251-2.1185665 1.2653547-2.845c.4555721-.360384.7253597-.9061991.735-1.487 0-.5522847.4477153-1 1-1s1 .4477153 1 1c-.0058989 1.0830809-.4645879 2.1143155-1.265 2.844-.4631801.3546006-.7348196.904667-.7348196 1.488s.2716395 1.1333994.7348196 1.488c.8052908.7267787 1.2649231 1.7607417 1.2649231 2.8455s-.4596323 2.1187213-1.2649231 2.8455c-.4558827.3610084-.7256729.9075629-.735 1.489 0 .5522847-.4477153 1-1 1z"/><path id="Shape" d="m22 47c-.5522847 0-1-.4477153-1-1 .0058646-1.0833769.4645357-2.1149337 1.265-2.845.4632216-.3550112.7348361-.9053844.7348361-1.489s-.2716145-1.1339888-.7348361-1.489c-.8055296-.7264335-1.2653547-1.7602956-1.2653547-2.845s.4598251-2.1185665 1.2653547-2.845c.4555721-.360384.7253597-.9061991.735-1.487 0-.5522847.4477153-1 1-1s1 .4477153 1 1c-.0058989 1.0830809-.4645879 2.1143155-1.265 2.844-.4631801.3546006-.7348196.904667-.7348196 1.488s.2716395 1.1333994.7348196 1.488c.8052908.7267787 1.2649231 1.7607417 1.2649231 2.8455s-.4596323 2.1187213-1.2649231 2.8455c-.4558827.3610084-.7256729.9075629-.735 1.489 0 .5522847-.4477153 1-1 1z"/><path id="Shape" d="m29 47c-.5522847 0-1-.4477153-1-1 .0058646-1.0833769.4645357-2.1149337 1.265-2.845.4632216-.3550112.7348361-.9053844.7348361-1.489s-.2716145-1.1339888-.7348361-1.489c-.8055296-.7264335-1.2653547-1.7602956-1.2653547-2.845s.4598251-2.1185665 1.2653547-2.845c.4555721-.360384.7253597-.9061991.735-1.487 0-.5522847.4477153-.9999999 1-.9999999s1 .4477152 1 .9999999c-.0058989 1.0830809-.4645879 2.1143155-1.265 2.844-.4631801.3546006-.7348196.904667-.7348196 1.488s.2716395 1.1333994.7348196 1.488c.8052908.7267787 1.2649231 1.7607417 1.2649231 2.8455s-.4596323 2.1187213-1.2649231 2.8455c-.4558827.3610084-.7256729.9075629-.735 1.489 0 .5522847-.4477153 1-1 1z"/><path id="Shape" d="m36 47c-.5522847 0-1-.4477153-1-1 .0058646-1.0833769.4645357-2.1149337 1.265-2.845.4632216-.3550112.7348361-.9053844.7348361-1.489s-.2716145-1.1339888-.7348361-1.489c-.8055296-.7264335-1.2653547-1.7602956-1.2653547-2.845s.4598251-2.1185665 1.2653547-2.845c.4555721-.360384.7253597-.9061991.735-1.487 0-.5522847.4477153-1 1-1s1 .4477153 1 1c-.0058989 1.0830809-.4645879 2.1143155-1.265 2.844-.4631801.3546006-.7348196.904667-.7348196 1.488s.2716395 1.1333994.7348196 1.488c.8052908.7267787 1.2649231 1.7607417 1.2649231 2.8455s-.4596323 2.1187213-1.2649231 2.8455c-.4558827.3610084-.7256729.9075629-.735 1.489 0 .5522847-.4477153 1-1 1z"/><path id="Shape" d="m43 47c-.5522847 0-1-.4477153-1-1 .0058646-1.0833769.4645357-2.1149337 1.265-2.845.4632216-.3550112.7348361-.9053844.7348361-1.489s-.2716145-1.1339888-.7348361-1.489c-.8055296-.7264335-1.2653547-1.7602956-1.2653547-2.845s.4598251-2.1185665 1.2653547-2.845c.4555721-.360384.7253597-.9061991.735-1.487 0-.5522847.4477153-1 1-1s1 .4477153 1 1c-.0058989 1.0830809-.4645879 2.1143155-1.265 2.844-.4631801.3546006-.7348196.904667-.7348196 1.488s.2716395 1.1333994.7348196 1.488c.8052908.7267787 1.2649231 1.7607417 1.2649231 2.8455s-.4596323 2.1187213-1.2649231 2.8455c-.4558827.3610084-.7256729.9075629-.735 1.489 0 .5522847-.4477153 1-1 1z"/><path id="Shape" d="m49 47c-.5522847 0-1-.4477153-1-1 .0058646-1.0833769.4645357-2.1149337 1.265-2.845.4632216-.3550112.7348361-.9053844.7348361-1.489s-.2716145-1.1339888-.7348361-1.489c-.8055296-.7264335-1.2653547-1.7602956-1.2653547-2.845s.4598251-2.1185665 1.2653547-2.845c.4555721-.360384.7253597-.9061991.735-1.487 0-.5522847.4477153-1 1-1s1 .4477153 1 1c-.0058989 1.0830809-.4645879 2.1143155-1.265 2.844-.4631801.3546006-.7348196.904667-.7348196 1.488s.2716395 1.1333994.7348196 1.488c.8052908.7267787 1.2649231 1.7607417 1.2649231 2.8455s-.4596323 2.1187213-1.2649231 2.8455c-.4558827.3610084-.7256729.9075629-.735 1.489 0 .5522847-.4477153 1-1 1z"/></g><path id="Shape" d="m2 0h54c1.1045695 0 2 .8954305 2 2v21c0 3.3137085-2.6862915 6-6 6h-46c-3.3137085 0-6-2.6862915-6-6v-21c0-1.1045695.8954305-2 2-2z" fill="#ecf0f1"/><path id="Shape" d="m13 23h32c1.6568542 0 3 1.3431458 3 3v3h-38v-3c0-1.6568542 1.3431458-3 3-3z" fill="#bdc3c7"/><path id="Shape" d="m5 0h48v9c0 1.6568542-1.3431458 3-3 3h-42c-1.65685425 0-3-1.3431458-3-3z" fill="#bdc3c7"/><path id="Shape" d="m35 20h-12c-.5522847 0-1-.4477153-1-1s.4477153-1 1-1h12c.5522847 0 1 .4477153 1 1s-.4477153 1-1 1z" fill="#95a5a5"/><path id="Shape" d="m49 9h-40c-.55228475 0-1-.44771525-1-1s.44771525-1 1-1h40c.5522847 0 1 .44771525 1 1s-.4477153 1-1 1z" fill="#7f8c8d"/><path id="Shape" d="m49 5h-40c-.55228475 0-1-.44771525-1-1s.44771525-1 1-1h40c.5522847 0 1 .44771525 1 1s-.4477153 1-1 1z" fill="#7f8c8d"/><circle id="Oval" cx="49" cy="19" fill="#26b99a" r="1"/><circle id="Oval" cx="53" cy="19" fill="#ff5364" r="1"/></g></g></svg>