<svg height="512" viewBox="0 0 58 58" width="512" xmlns="http://www.w3.org/2000/svg"><g id="Page-1" fill="none" fill-rule="evenodd"><g id="003---Repair" fill-rule="nonzero"><path id="Rectangle-path" d="m40 20.16h8v9.84h-8z" fill="#2980ba"/><path id="Shape" d="m25 3.52 2 2.48-2 1.52s-4-.66-4 6v7.48h-7v-7.48c0-5.77-5.08-7.07-9.06-4.71-.35702144.1977783-.79840837.15873951-1.11517372-.09863234-.31676536-.25737185-.44533194-.68142029-.32482628-1.07136766 2.56-7.82 14.32-10.4 21.5-4.12z" fill="#bdc3c7"/><rect id="Rectangle-path" fill="#95a5a5" height="7" rx="1" width="5" x="25" y="2"/><path id="Shape" d="m2 29h54c1.1045695 0 2 .8954305 2 2v21c0 3.3137085-2.6862915 6-6 6h-46c-3.3137085 0-6-2.6862915-6-6v-21c0-1.1045695.8954305-2 2-2z" fill="#ecf0f1"/><path id="Shape" d="m13 52h32c1.6568542 0 3 1.3431458 3 3v3h-38v-3c0-1.6568542 1.3431458-3 3-3z" fill="#bdc3c7"/><path id="Shape" d="m5 29h48v9c0 1.6568542-1.3431458 3-3 3h-42c-1.65685425 0-3-1.3431458-3-3z" fill="#bdc3c7"/><path id="Shape" d="m35 49h-12c-.5522847 0-1-.4477153-1-1s.4477153-1 1-1h12c.5522847 0 1 .4477153 1 1s-.4477153 1-1 1z" fill="#95a5a5"/><path id="Shape" d="m49 38h-40c-.55228475 0-1-.4477153-1-1s.44771525-1 1-1h40c.5522847 0 1 .4477153 1 1s-.4477153 1-1 1z" fill="#7f8c8d"/><path id="Shape" d="m49 34h-40c-.55228475 0-1-.4477153-1-1s.44771525-1 1-1h40c.5522847 0 1 .4477153 1 1s-.4477153 1-1 1z" fill="#7f8c8d"/><circle id="Oval" cx="49" cy="48" fill="#26b99a" r="1"/><circle id="Oval" cx="53" cy="48" fill="#ff5364" r="1"/><path id="Shape" d="m54 11c.0002954 3.975051-2.3558686 7.5721281-6 9.16-2.5490716 1.1199766-5.4509284 1.1199766-8 0-3.4557449-1.5106032-5.7676528-4.8369785-5.9789637-8.6025385-.2113109-3.76556004 1.7139234-7.32970987 4.9789637-9.2174615v9.66l5 3 5-3v-9.66c3.0949899 1.78522458 5.0013544 5.08704777 5 8.66z" fill="#3b97d3"/><path id="Rectangle-path" d="m14 20h7v9h-7z" fill="#e64c3c"/></g></g></svg>