<svg height="512" viewBox="0 0 58 58" width="512" xmlns="http://www.w3.org/2000/svg"><g id="Page-1" fill="none" fill-rule="evenodd"><g id="079---AC-Settings" fill-rule="nonzero"><path id="Shape" d="m10 29h-4c-3.3137085 0-6-2.6862915-6-6v-21c.0032948-1.10320187.89679813-1.9967052 2-2h44c1.1032019.0032948 1.9967052.89679813 2 2v21c0 3.3137085-2.6862915 6-6 6z" fill="#ecf0f1"/><path id="Shape" d="m10 29v-3c0-1.6568542 1.3431458-3 3-3h21c1.6568542 0 3 1.3431458 3 3v3" fill="#bdc3c7"/><path id="Shape" d="m5 0h38v9c0 1.6568542-1.3431458 3-3 3h-32c-1.65685425 0-3-1.3431458-3-3z" fill="#bdc3c7"/><path id="Shape" d="m27 20h-6c-.5522847 0-1-.4477153-1-1s.4477153-1 1-1h6c.5522847 0 1 .4477153 1 1s-.4477153 1-1 1z" fill="#95a5a5"/><path id="Shape" d="m39 9h-30c-.55228475 0-1-.44771525-1-1s.44771525-1 1-1h30c.5522847 0 1 .44771525 1 1s-.4477153 1-1 1z" fill="#7f8c8d"/><path id="Shape" d="m39 5h-30c-.55228475 0-1-.44771525-1-1s.44771525-1 1-1h30c.5522847 0 1 .44771525 1 1s-.4477153 1-1 1z" fill="#7f8c8d"/><path id="Shape" d="m37.36 33.71-10.43 17.4c-.8360015 1.3933358-.865163 3.1268327-.0764995 4.5474991.7886634 1.4206665 2.2753351 2.3126695 3.9 2.3400001 1.624665.0273306 3.140498-.8141634 3.9764995-2.2074992l10.44-17.39v-.01zm-3.7 16.8-1.8 3c-.1790334.3047463-.5065578.491359-.86.49-.1792875-.001483-.3550825-.0497405-.51-.14-.4748931-.281719-.6315765-.8950224-.35-1.37l1.8-3c.1789271-.313992.5133479-.5070131.8747359-.5048805.3613881.0021327.6935075.1990872.8687164.515169.1752089.3160819.1662428.7021052-.0234523 1.0097115z" fill="#2980ba"/><path id="Shape" d="m56.38 32.97c-2.3287187 3.8734264-6.7270349 6.0039221-11.21 5.43v-.01c-1.5560456-.1967384-3.0543152-.7143224-4.4-1.52-1.3465281-.8014259-2.5085642-1.8782688-3.41-3.16-2.4908629-3.4965534-2.8005632-8.0977494-.8007417-11.8965646 1.9998215-3.7988153 5.9683355-6.1478184 10.2607417-6.0734354l-5.66 9.43 3.12 5.85h6.64l5.65-9.43c1.970248 3.5558758 1.8978543 7.8918781-.19 11.38z" fill="#3b97d3"/></g></g></svg>